<svg id="SvgjsSvg1001" width="890" height="890" xmlns="http://www.w3.org/2000/svg" version="1.1" xmlns:xlink="http://www.w3.org/1999/xlink" xmlns:svgjs="http://svgjs.com/svgjs" style="left: 0px; top: 0px;"><defs id="SvgjsDefs1002"></defs><polyline id="SvgjsPolyline1008" points="426,237 426,436 64,436 64,207 244,69 426,237" fill="none" stroke="#000000" stroke-width="0.4"></polyline><polyline id="SvgjsPolyline1009" points="454,224 454,464 36,464 36,193 246,31 454,224" fill="none" stroke="#000000" stroke-width="0.4"></polyline><g id="SvgjsG1010" transform="matrix(0.7348034446274879,0.6782801027330658,-0.6782801027330658,0.7348034446274879,264.5,68)"><rect id="SvgjsRect1011" width="6" height="1.8" x="-3" y="-10.9" fill="none" stroke="#000000" stroke-width="0.4"></rect></g><g id="SvgjsG1012" transform="matrix(0.7348034446274879,0.6782801027330658,-0.6782801027330658,0.7348034446274879,264.5,68)"><rect id="SvgjsRect1013" width="6" height="1.8" x="-3" y="-0.9" fill="none" stroke="#000000" stroke-width="0.4"></rect></g><g id="SvgjsG1014" transform="matrix(0.7348034446274879,0.6782801027330658,-0.6782801027330658,0.7348034446274879,264.5,68)"><rect id="SvgjsRect1015" width="6" height="1.8" x="-3" y="9.1" fill="none" stroke="#000000" stroke-width="0.4"></rect></g><g id="SvgjsG1016" transform="matrix(0.7348034446274879,0.6782801027330658,-0.6782801027330658,0.7348034446274879,284,86)"><rect id="SvgjsRect1017" width="6" height="1.8" x="-3" y="-10.9" fill="none" stroke="#000000" stroke-width="0.4"></rect></g><g id="SvgjsG1018" transform="matrix(0.7348034446274879,0.6782801027330658,-0.6782801027330658,0.7348034446274879,284,86)"><rect id="SvgjsRect1019" width="6" height="1.8" x="-3" y="-0.9" fill="none" stroke="#000000" stroke-width="0.4"></rect></g><g id="SvgjsG1020" transform="matrix(0.7348034446274879,0.6782801027330658,-0.6782801027330658,0.7348034446274879,284,86)"><rect id="SvgjsRect1021" width="6" height="1.8" x="-3" y="9.1" fill="none" stroke="#000000" stroke-width="0.4"></rect></g><g id="SvgjsG1022" transform="matrix(0.7348034446274879,0.6782801027330658,-0.6782801027330658,0.7348034446274879,303.5,104)"><rect id="SvgjsRect1023" width="6" height="1.8" x="-3" y="-10.9" fill="none" stroke="#000000" stroke-width="0.4"></rect></g><g id="SvgjsG1024" transform="matrix(0.7348034446274879,0.6782801027330658,-0.6782801027330658,0.7348034446274879,303.5,104)"><rect id="SvgjsRect1025" width="6" height="1.8" x="-3" y="-0.9" fill="none" stroke="#000000" stroke-width="0.4"></rect></g><g id="SvgjsG1026" transform="matrix(0.7348034446274879,0.6782801027330658,-0.6782801027330658,0.7348034446274879,303.5,104)"><rect id="SvgjsRect1027" width="6" height="1.8" x="-3" y="9.1" fill="none" stroke="#000000" stroke-width="0.4"></rect></g><g id="SvgjsG1028" transform="matrix(0.7348034446274879,0.6782801027330658,-0.6782801027330658,0.7348034446274879,323,122)"><rect id="SvgjsRect1029" width="6" height="1.8" x="-3" y="-10.9" fill="none" stroke="#000000" stroke-width="0.4"></rect></g><g id="SvgjsG1030" transform="matrix(0.7348034446274879,0.6782801027330658,-0.6782801027330658,0.7348034446274879,323,122)"><rect id="SvgjsRect1031" width="6" height="1.8" x="-3" y="-0.9" fill="none" stroke="#000000" stroke-width="0.4"></rect></g><g id="SvgjsG1032" transform="matrix(0.7348034446274879,0.6782801027330658,-0.6782801027330658,0.7348034446274879,323,122)"><rect id="SvgjsRect1033" width="6" height="1.8" x="-3" y="9.1" fill="none" stroke="#000000" stroke-width="0.4"></rect></g><g id="SvgjsG1034" transform="matrix(0.7348034446274879,0.6782801027330658,-0.6782801027330658,0.7348034446274879,342.5,140)"><rect id="SvgjsRect1035" width="6" height="1.8" x="-3" y="-10.9" fill="none" stroke="#000000" stroke-width="0.4"></rect></g><g id="SvgjsG1036" transform="matrix(0.7348034446274879,0.6782801027330658,-0.6782801027330658,0.7348034446274879,342.5,140)"><rect id="SvgjsRect1037" width="6" height="1.8" x="-3" y="-0.9" fill="none" stroke="#000000" stroke-width="0.4"></rect></g><g id="SvgjsG1038" transform="matrix(0.7348034446274879,0.6782801027330658,-0.6782801027330658,0.7348034446274879,342.5,140)"><rect id="SvgjsRect1039" width="6" height="1.8" x="-3" y="9.1" fill="none" stroke="#000000" stroke-width="0.4"></rect></g><g id="SvgjsG1040" transform="matrix(0.7348034446274879,0.6782801027330658,-0.6782801027330658,0.7348034446274879,362,158)"><rect id="SvgjsRect1041" width="6" height="1.8" x="-3" y="-10.9" fill="none" stroke="#000000" stroke-width="0.4"></rect></g><g id="SvgjsG1042" transform="matrix(0.7348034446274879,0.6782801027330658,-0.6782801027330658,0.7348034446274879,362,158)"><rect id="SvgjsRect1043" width="6" height="1.8" x="-3" y="-0.9" fill="none" stroke="#000000" stroke-width="0.4"></rect></g><g id="SvgjsG1044" transform="matrix(0.7348034446274879,0.6782801027330658,-0.6782801027330658,0.7348034446274879,362,158)"><rect id="SvgjsRect1045" width="6" height="1.8" x="-3" y="9.1" fill="none" stroke="#000000" stroke-width="0.4"></rect></g><g id="SvgjsG1046" transform="matrix(0.7348034446274879,0.6782801027330658,-0.6782801027330658,0.7348034446274879,381.5,176)"><rect id="SvgjsRect1047" width="6" height="1.8" x="-3" y="-10.9" fill="none" stroke="#000000" stroke-width="0.4"></rect></g><g id="SvgjsG1048" transform="matrix(0.7348034446274879,0.6782801027330658,-0.6782801027330658,0.7348034446274879,381.5,176)"><rect id="SvgjsRect1049" width="6" height="1.8" x="-3" y="-0.9" fill="none" stroke="#000000" stroke-width="0.4"></rect></g><g id="SvgjsG1050" transform="matrix(0.7348034446274879,0.6782801027330658,-0.6782801027330658,0.7348034446274879,381.5,176)"><rect id="SvgjsRect1051" width="6" height="1.8" x="-3" y="9.1" fill="none" stroke="#000000" stroke-width="0.4"></rect></g><g id="SvgjsG1052" transform="matrix(0.7348034446274879,0.6782801027330658,-0.6782801027330658,0.7348034446274879,401,194)"><rect id="SvgjsRect1053" width="6" height="1.8" x="-3" y="-10.9" fill="none" stroke="#000000" stroke-width="0.4"></rect></g><g id="SvgjsG1054" transform="matrix(0.7348034446274879,0.6782801027330658,-0.6782801027330658,0.7348034446274879,401,194)"><rect id="SvgjsRect1055" width="6" height="1.8" x="-3" y="-0.9" fill="none" stroke="#000000" stroke-width="0.4"></rect></g><g id="SvgjsG1056" transform="matrix(0.7348034446274879,0.6782801027330658,-0.6782801027330658,0.7348034446274879,401,194)"><rect id="SvgjsRect1057" width="6" height="1.8" x="-3" y="9.1" fill="none" stroke="#000000" stroke-width="0.4"></rect></g><g id="SvgjsG1058" transform="matrix(0.7348034446274879,0.6782801027330658,-0.6782801027330658,0.7348034446274879,420.5,212)"><rect id="SvgjsRect1059" width="6" height="1.8" x="-3" y="-10.9" fill="none" stroke="#000000" stroke-width="0.4"></rect></g><g id="SvgjsG1060" transform="matrix(0.7348034446274879,0.6782801027330658,-0.6782801027330658,0.7348034446274879,420.5,212)"><rect id="SvgjsRect1061" width="6" height="1.8" x="-3" y="-0.9" fill="none" stroke="#000000" stroke-width="0.4"></rect></g><g id="SvgjsG1062" transform="matrix(0.7348034446274879,0.6782801027330658,-0.6782801027330658,0.7348034446274879,420.5,212)"><rect id="SvgjsRect1063" width="6" height="1.8" x="-3" y="9.1" fill="none" stroke="#000000" stroke-width="0.4"></rect></g><g id="SvgjsG1064" transform="matrix(6.123233995736766e-17,1,-1,6.123233995736766e-17,440,252)"><rect id="SvgjsRect1065" width="6" height="1.8" x="-3" y="-10.9" fill="none" stroke="#000000" stroke-width="0.4"></rect></g><g id="SvgjsG1066" transform="matrix(6.123233995736766e-17,1,-1,6.123233995736766e-17,440,252)"><rect id="SvgjsRect1067" width="6" height="1.8" x="-3" y="-0.9" fill="none" stroke="#000000" stroke-width="0.4"></rect></g><g id="SvgjsG1068" transform="matrix(6.123233995736766e-17,1,-1,6.123233995736766e-17,440,252)"><rect id="SvgjsRect1069" width="6" height="1.8" x="-3" y="9.1" fill="none" stroke="#000000" stroke-width="0.4"></rect></g><g id="SvgjsG1070" transform="matrix(6.123233995736766e-17,1,-1,6.123233995736766e-17,440,274)"><rect id="SvgjsRect1071" width="6" height="1.8" x="-3" y="-10.9" fill="none" stroke="#000000" stroke-width="0.4"></rect></g><g id="SvgjsG1072" transform="matrix(6.123233995736766e-17,1,-1,6.123233995736766e-17,440,274)"><rect id="SvgjsRect1073" width="6" height="1.8" x="-3" y="-0.9" fill="none" stroke="#000000" stroke-width="0.4"></rect></g><g id="SvgjsG1074" transform="matrix(6.123233995736766e-17,1,-1,6.123233995736766e-17,440,274)"><rect id="SvgjsRect1075" width="6" height="1.8" x="-3" y="9.1" fill="none" stroke="#000000" stroke-width="0.4"></rect></g><g id="SvgjsG1076" transform="matrix(6.123233995736766e-17,1,-1,6.123233995736766e-17,440,296)"><rect id="SvgjsRect1077" width="6" height="1.8" x="-3" y="-10.9" fill="none" stroke="#000000" stroke-width="0.4"></rect></g><g id="SvgjsG1078" transform="matrix(6.123233995736766e-17,1,-1,6.123233995736766e-17,440,296)"><rect id="SvgjsRect1079" width="6" height="1.8" x="-3" y="-0.9" fill="none" stroke="#000000" stroke-width="0.4"></rect></g><g id="SvgjsG1080" transform="matrix(6.123233995736766e-17,1,-1,6.123233995736766e-17,440,296)"><rect id="SvgjsRect1081" width="6" height="1.8" x="-3" y="9.1" fill="none" stroke="#000000" stroke-width="0.4"></rect></g><g id="SvgjsG1082" transform="matrix(6.123233995736766e-17,1,-1,6.123233995736766e-17,440,318)"><rect id="SvgjsRect1083" width="6" height="1.8" x="-3" y="-10.9" fill="none" stroke="#000000" stroke-width="0.4"></rect></g><g id="SvgjsG1084" transform="matrix(6.123233995736766e-17,1,-1,6.123233995736766e-17,440,318)"><rect id="SvgjsRect1085" width="6" height="1.8" x="-3" y="-0.9" fill="none" stroke="#000000" stroke-width="0.4"></rect></g><g id="SvgjsG1086" transform="matrix(6.123233995736766e-17,1,-1,6.123233995736766e-17,440,318)"><rect id="SvgjsRect1087" width="6" height="1.8" x="-3" y="9.1" fill="none" stroke="#000000" stroke-width="0.4"></rect></g><g id="SvgjsG1088" transform="matrix(6.123233995736766e-17,1,-1,6.123233995736766e-17,440,340)"><rect id="SvgjsRect1089" width="6" height="1.8" x="-3" y="-10.9" fill="none" stroke="#000000" stroke-width="0.4"></rect></g><g id="SvgjsG1090" transform="matrix(6.123233995736766e-17,1,-1,6.123233995736766e-17,440,340)"><rect id="SvgjsRect1091" width="6" height="1.8" x="-3" y="-0.9" fill="none" stroke="#000000" stroke-width="0.4"></rect></g><g id="SvgjsG1092" transform="matrix(6.123233995736766e-17,1,-1,6.123233995736766e-17,440,340)"><rect id="SvgjsRect1093" width="6" height="1.8" x="-3" y="9.1" fill="none" stroke="#000000" stroke-width="0.4"></rect></g><g id="SvgjsG1094" transform="matrix(6.123233995736766e-17,1,-1,6.123233995736766e-17,440,362)"><rect id="SvgjsRect1095" width="6" height="1.8" x="-3" y="-10.9" fill="none" stroke="#000000" stroke-width="0.4"></rect></g><g id="SvgjsG1096" transform="matrix(6.123233995736766e-17,1,-1,6.123233995736766e-17,440,362)"><rect id="SvgjsRect1097" width="6" height="1.8" x="-3" y="-0.9" fill="none" stroke="#000000" stroke-width="0.4"></rect></g><g id="SvgjsG1098" transform="matrix(6.123233995736766e-17,1,-1,6.123233995736766e-17,440,362)"><rect id="SvgjsRect1099" width="6" height="1.8" x="-3" y="9.1" fill="none" stroke="#000000" stroke-width="0.4"></rect></g><g id="SvgjsG1100" transform="matrix(6.123233995736766e-17,1,-1,6.123233995736766e-17,440,384)"><rect id="SvgjsRect1101" width="6" height="1.8" x="-3" y="-10.9" fill="none" stroke="#000000" stroke-width="0.4"></rect></g><g id="SvgjsG1102" transform="matrix(6.123233995736766e-17,1,-1,6.123233995736766e-17,440,384)"><rect id="SvgjsRect1103" width="6" height="1.8" x="-3" y="-0.9" fill="none" stroke="#000000" stroke-width="0.4"></rect></g><g id="SvgjsG1104" transform="matrix(6.123233995736766e-17,1,-1,6.123233995736766e-17,440,384)"><rect id="SvgjsRect1105" width="6" height="1.8" x="-3" y="9.1" fill="none" stroke="#000000" stroke-width="0.4"></rect></g><g id="SvgjsG1106" transform="matrix(6.123233995736766e-17,1,-1,6.123233995736766e-17,440,406)"><rect id="SvgjsRect1107" width="6" height="1.8" x="-3" y="-10.9" fill="none" stroke="#000000" stroke-width="0.4"></rect></g><g id="SvgjsG1108" transform="matrix(6.123233995736766e-17,1,-1,6.123233995736766e-17,440,406)"><rect id="SvgjsRect1109" width="6" height="1.8" x="-3" y="-0.9" fill="none" stroke="#000000" stroke-width="0.4"></rect></g><g id="SvgjsG1110" transform="matrix(6.123233995736766e-17,1,-1,6.123233995736766e-17,440,406)"><rect id="SvgjsRect1111" width="6" height="1.8" x="-3" y="9.1" fill="none" stroke="#000000" stroke-width="0.4"></rect></g><g id="SvgjsG1112" transform="matrix(6.123233995736766e-17,1,-1,6.123233995736766e-17,440,428)"><rect id="SvgjsRect1113" width="6" height="1.8" x="-3" y="-10.9" fill="none" stroke="#000000" stroke-width="0.4"></rect></g><g id="SvgjsG1114" transform="matrix(6.123233995736766e-17,1,-1,6.123233995736766e-17,440,428)"><rect id="SvgjsRect1115" width="6" height="1.8" x="-3" y="-0.9" fill="none" stroke="#000000" stroke-width="0.4"></rect></g><g id="SvgjsG1116" transform="matrix(6.123233995736766e-17,1,-1,6.123233995736766e-17,440,428)"><rect id="SvgjsRect1117" width="6" height="1.8" x="-3" y="9.1" fill="none" stroke="#000000" stroke-width="0.4"></rect></g><g id="SvgjsG1118" transform="matrix(-1,1.2246467991473532e-16,-1.2246467991473532e-16,-1,401,450)"><rect id="SvgjsRect1119" width="6" height="1.8" x="-3" y="-10.9" fill="none" stroke="#000000" stroke-width="0.4"></rect></g><g id="SvgjsG1120" transform="matrix(-1,1.2246467991473532e-16,-1.2246467991473532e-16,-1,401,450)"><rect id="SvgjsRect1121" width="6" height="1.8" x="-3" y="-0.9" fill="none" stroke="#000000" stroke-width="0.4"></rect></g><g id="SvgjsG1122" transform="matrix(-1,1.2246467991473532e-16,-1.2246467991473532e-16,-1,401,450)"><rect id="SvgjsRect1123" width="6" height="1.8" x="-3" y="9.1" fill="none" stroke="#000000" stroke-width="0.4"></rect></g><g id="SvgjsG1124" transform="matrix(-1,1.2246467991473532e-16,-1.2246467991473532e-16,-1,362,450)"><rect id="SvgjsRect1125" width="6" height="1.8" x="-3" y="-10.9" fill="none" stroke="#000000" stroke-width="0.4"></rect></g><g id="SvgjsG1126" transform="matrix(-1,1.2246467991473532e-16,-1.2246467991473532e-16,-1,362,450)"><rect id="SvgjsRect1127" width="6" height="1.8" x="-3" y="-0.9" fill="none" stroke="#000000" stroke-width="0.4"></rect></g><g id="SvgjsG1128" transform="matrix(-1,1.2246467991473532e-16,-1.2246467991473532e-16,-1,362,450)"><rect id="SvgjsRect1129" width="6" height="1.8" x="-3" y="9.1" fill="none" stroke="#000000" stroke-width="0.4"></rect></g><g id="SvgjsG1130" transform="matrix(-1,1.2246467991473532e-16,-1.2246467991473532e-16,-1,323,450)"><rect id="SvgjsRect1131" width="6" height="1.8" x="-3" y="-10.9" fill="none" stroke="#000000" stroke-width="0.4"></rect></g><g id="SvgjsG1132" transform="matrix(-1,1.2246467991473532e-16,-1.2246467991473532e-16,-1,323,450)"><rect id="SvgjsRect1133" width="6" height="1.8" x="-3" y="-0.9" fill="none" stroke="#000000" stroke-width="0.4"></rect></g><g id="SvgjsG1134" transform="matrix(-1,1.2246467991473532e-16,-1.2246467991473532e-16,-1,323,450)"><rect id="SvgjsRect1135" width="6" height="1.8" x="-3" y="9.1" fill="none" stroke="#000000" stroke-width="0.4"></rect></g><g id="SvgjsG1136" transform="matrix(-1,1.2246467991473532e-16,-1.2246467991473532e-16,-1,284,450)"><rect id="SvgjsRect1137" width="6" height="1.8" x="-3" y="-10.9" fill="none" stroke="#000000" stroke-width="0.4"></rect></g><g id="SvgjsG1138" transform="matrix(-1,1.2246467991473532e-16,-1.2246467991473532e-16,-1,284,450)"><rect id="SvgjsRect1139" width="6" height="1.8" x="-3" y="-0.9" fill="none" stroke="#000000" stroke-width="0.4"></rect></g><g id="SvgjsG1140" transform="matrix(-1,1.2246467991473532e-16,-1.2246467991473532e-16,-1,284,450)"><rect id="SvgjsRect1141" width="6" height="1.8" x="-3" y="9.1" fill="none" stroke="#000000" stroke-width="0.4"></rect></g><g id="SvgjsG1142" transform="matrix(-1,1.2246467991473532e-16,-1.2246467991473532e-16,-1,245,450)"><rect id="SvgjsRect1143" width="6" height="1.8" x="-3" y="-10.9" fill="none" stroke="#000000" stroke-width="0.4"></rect></g><g id="SvgjsG1144" transform="matrix(-1,1.2246467991473532e-16,-1.2246467991473532e-16,-1,245,450)"><rect id="SvgjsRect1145" width="6" height="1.8" x="-3" y="-0.9" fill="none" stroke="#000000" stroke-width="0.4"></rect></g><g id="SvgjsG1146" transform="matrix(-1,1.2246467991473532e-16,-1.2246467991473532e-16,-1,245,450)"><rect id="SvgjsRect1147" width="6" height="1.8" x="-3" y="9.1" fill="none" stroke="#000000" stroke-width="0.4"></rect></g><g id="SvgjsG1148" transform="matrix(-1,1.2246467991473532e-16,-1.2246467991473532e-16,-1,206,450)"><rect id="SvgjsRect1149" width="6" height="1.8" x="-3" y="-10.9" fill="none" stroke="#000000" stroke-width="0.4"></rect></g><g id="SvgjsG1150" transform="matrix(-1,1.2246467991473532e-16,-1.2246467991473532e-16,-1,206,450)"><rect id="SvgjsRect1151" width="6" height="1.8" x="-3" y="-0.9" fill="none" stroke="#000000" stroke-width="0.4"></rect></g><g id="SvgjsG1152" transform="matrix(-1,1.2246467991473532e-16,-1.2246467991473532e-16,-1,206,450)"><rect id="SvgjsRect1153" width="6" height="1.8" x="-3" y="9.1" fill="none" stroke="#000000" stroke-width="0.4"></rect></g><g id="SvgjsG1154" transform="matrix(-1,1.2246467991473532e-16,-1.2246467991473532e-16,-1,167,450)"><rect id="SvgjsRect1155" width="6" height="1.8" x="-3" y="-10.9" fill="none" stroke="#000000" stroke-width="0.4"></rect></g><g id="SvgjsG1156" transform="matrix(-1,1.2246467991473532e-16,-1.2246467991473532e-16,-1,167,450)"><rect id="SvgjsRect1157" width="6" height="1.8" x="-3" y="-0.9" fill="none" stroke="#000000" stroke-width="0.4"></rect></g><g id="SvgjsG1158" transform="matrix(-1,1.2246467991473532e-16,-1.2246467991473532e-16,-1,167,450)"><rect id="SvgjsRect1159" width="6" height="1.8" x="-3" y="9.1" fill="none" stroke="#000000" stroke-width="0.4"></rect></g><g id="SvgjsG1160" transform="matrix(-1,1.2246467991473532e-16,-1.2246467991473532e-16,-1,128,450)"><rect id="SvgjsRect1161" width="6" height="1.8" x="-3" y="-10.9" fill="none" stroke="#000000" stroke-width="0.4"></rect></g><g id="SvgjsG1162" transform="matrix(-1,1.2246467991473532e-16,-1.2246467991473532e-16,-1,128,450)"><rect id="SvgjsRect1163" width="6" height="1.8" x="-3" y="-0.9" fill="none" stroke="#000000" stroke-width="0.4"></rect></g><g id="SvgjsG1164" transform="matrix(-1,1.2246467991473532e-16,-1.2246467991473532e-16,-1,128,450)"><rect id="SvgjsRect1165" width="6" height="1.8" x="-3" y="9.1" fill="none" stroke="#000000" stroke-width="0.4"></rect></g><g id="SvgjsG1166" transform="matrix(-1,1.2246467991473532e-16,-1.2246467991473532e-16,-1,89,450)"><rect id="SvgjsRect1167" width="6" height="1.8" x="-3" y="-10.9" fill="none" stroke="#000000" stroke-width="0.4"></rect></g><g id="SvgjsG1168" transform="matrix(-1,1.2246467991473532e-16,-1.2246467991473532e-16,-1,89,450)"><rect id="SvgjsRect1169" width="6" height="1.8" x="-3" y="-0.9" fill="none" stroke="#000000" stroke-width="0.4"></rect></g><g id="SvgjsG1170" transform="matrix(-1,1.2246467991473532e-16,-1.2246467991473532e-16,-1,89,450)"><rect id="SvgjsRect1171" width="6" height="1.8" x="-3" y="9.1" fill="none" stroke="#000000" stroke-width="0.4"></rect></g><g id="SvgjsG1172" transform="matrix(6.123233995736766e-17,-1,1,6.123233995736766e-17,50,425)"><rect id="SvgjsRect1173" width="6" height="1.8" x="-3" y="-10.9" fill="none" stroke="#000000" stroke-width="0.4"></rect></g><g id="SvgjsG1174" transform="matrix(6.123233995736766e-17,-1,1,6.123233995736766e-17,50,425)"><rect id="SvgjsRect1175" width="6" height="1.8" x="-3" y="-0.9" fill="none" stroke="#000000" stroke-width="0.4"></rect></g><g id="SvgjsG1176" transform="matrix(6.123233995736766e-17,-1,1,6.123233995736766e-17,50,425)"><rect id="SvgjsRect1177" width="6" height="1.8" x="-3" y="9.1" fill="none" stroke="#000000" stroke-width="0.4"></rect></g><g id="SvgjsG1178" transform="matrix(6.123233995736766e-17,-1,1,6.123233995736766e-17,50,400)"><rect id="SvgjsRect1179" width="6" height="1.8" x="-3" y="-10.9" fill="none" stroke="#000000" stroke-width="0.4"></rect></g><g id="SvgjsG1180" transform="matrix(6.123233995736766e-17,-1,1,6.123233995736766e-17,50,400)"><rect id="SvgjsRect1181" width="6" height="1.8" x="-3" y="-0.9" fill="none" stroke="#000000" stroke-width="0.4"></rect></g><g id="SvgjsG1182" transform="matrix(6.123233995736766e-17,-1,1,6.123233995736766e-17,50,400)"><rect id="SvgjsRect1183" width="6" height="1.8" x="-3" y="9.1" fill="none" stroke="#000000" stroke-width="0.4"></rect></g><g id="SvgjsG1184" transform="matrix(6.123233995736766e-17,-1,1,6.123233995736766e-17,50,375)"><rect id="SvgjsRect1185" width="6" height="1.8" x="-3" y="-10.9" fill="none" stroke="#000000" stroke-width="0.4"></rect></g><g id="SvgjsG1186" transform="matrix(6.123233995736766e-17,-1,1,6.123233995736766e-17,50,375)"><rect id="SvgjsRect1187" width="6" height="1.8" x="-3" y="-0.9" fill="none" stroke="#000000" stroke-width="0.4"></rect></g><g id="SvgjsG1188" transform="matrix(6.123233995736766e-17,-1,1,6.123233995736766e-17,50,375)"><rect id="SvgjsRect1189" width="6" height="1.8" x="-3" y="9.1" fill="none" stroke="#000000" stroke-width="0.4"></rect></g><g id="SvgjsG1190" transform="matrix(6.123233995736766e-17,-1,1,6.123233995736766e-17,50,350)"><rect id="SvgjsRect1191" width="6" height="1.8" x="-3" y="-10.9" fill="none" stroke="#000000" stroke-width="0.4"></rect></g><g id="SvgjsG1192" transform="matrix(6.123233995736766e-17,-1,1,6.123233995736766e-17,50,350)"><rect id="SvgjsRect1193" width="6" height="1.8" x="-3" y="-0.9" fill="none" stroke="#000000" stroke-width="0.4"></rect></g><g id="SvgjsG1194" transform="matrix(6.123233995736766e-17,-1,1,6.123233995736766e-17,50,350)"><rect id="SvgjsRect1195" width="6" height="1.8" x="-3" y="9.1" fill="none" stroke="#000000" stroke-width="0.4"></rect></g><g id="SvgjsG1196" transform="matrix(6.123233995736766e-17,-1,1,6.123233995736766e-17,50,325)"><rect id="SvgjsRect1197" width="6" height="1.8" x="-3" y="-10.9" fill="none" stroke="#000000" stroke-width="0.4"></rect></g><g id="SvgjsG1198" transform="matrix(6.123233995736766e-17,-1,1,6.123233995736766e-17,50,325)"><rect id="SvgjsRect1199" width="6" height="1.8" x="-3" y="-0.9" fill="none" stroke="#000000" stroke-width="0.4"></rect></g><g id="SvgjsG1200" transform="matrix(6.123233995736766e-17,-1,1,6.123233995736766e-17,50,325)"><rect id="SvgjsRect1201" width="6" height="1.8" x="-3" y="9.1" fill="none" stroke="#000000" stroke-width="0.4"></rect></g><g id="SvgjsG1202" transform="matrix(6.123233995736766e-17,-1,1,6.123233995736766e-17,50,300)"><rect id="SvgjsRect1203" width="6" height="1.8" x="-3" y="-10.9" fill="none" stroke="#000000" stroke-width="0.4"></rect></g><g id="SvgjsG1204" transform="matrix(6.123233995736766e-17,-1,1,6.123233995736766e-17,50,300)"><rect id="SvgjsRect1205" width="6" height="1.8" x="-3" y="-0.9" fill="none" stroke="#000000" stroke-width="0.4"></rect></g><g id="SvgjsG1206" transform="matrix(6.123233995736766e-17,-1,1,6.123233995736766e-17,50,300)"><rect id="SvgjsRect1207" width="6" height="1.8" x="-3" y="9.1" fill="none" stroke="#000000" stroke-width="0.4"></rect></g><g id="SvgjsG1208" transform="matrix(6.123233995736766e-17,-1,1,6.123233995736766e-17,50,275)"><rect id="SvgjsRect1209" width="6" height="1.8" x="-3" y="-10.9" fill="none" stroke="#000000" stroke-width="0.4"></rect></g><g id="SvgjsG1210" transform="matrix(6.123233995736766e-17,-1,1,6.123233995736766e-17,50,275)"><rect id="SvgjsRect1211" width="6" height="1.8" x="-3" y="-0.9" fill="none" stroke="#000000" stroke-width="0.4"></rect></g><g id="SvgjsG1212" transform="matrix(6.123233995736766e-17,-1,1,6.123233995736766e-17,50,275)"><rect id="SvgjsRect1213" width="6" height="1.8" x="-3" y="9.1" fill="none" stroke="#000000" stroke-width="0.4"></rect></g><g id="SvgjsG1214" transform="matrix(6.123233995736766e-17,-1,1,6.123233995736766e-17,50,250)"><rect id="SvgjsRect1215" width="6" height="1.8" x="-3" y="-10.9" fill="none" stroke="#000000" stroke-width="0.4"></rect></g><g id="SvgjsG1216" transform="matrix(6.123233995736766e-17,-1,1,6.123233995736766e-17,50,250)"><rect id="SvgjsRect1217" width="6" height="1.8" x="-3" y="-0.9" fill="none" stroke="#000000" stroke-width="0.4"></rect></g><g id="SvgjsG1218" transform="matrix(6.123233995736766e-17,-1,1,6.123233995736766e-17,50,250)"><rect id="SvgjsRect1219" width="6" height="1.8" x="-3" y="9.1" fill="none" stroke="#000000" stroke-width="0.4"></rect></g><g id="SvgjsG1220" transform="matrix(6.123233995736766e-17,-1,1,6.123233995736766e-17,50,225)"><rect id="SvgjsRect1221" width="6" height="1.8" x="-3" y="-10.9" fill="none" stroke="#000000" stroke-width="0.4"></rect></g><g id="SvgjsG1222" transform="matrix(6.123233995736766e-17,-1,1,6.123233995736766e-17,50,225)"><rect id="SvgjsRect1223" width="6" height="1.8" x="-3" y="-0.9" fill="none" stroke="#000000" stroke-width="0.4"></rect></g><g id="SvgjsG1224" transform="matrix(6.123233995736766e-17,-1,1,6.123233995736766e-17,50,225)"><rect id="SvgjsRect1225" width="6" height="1.8" x="-3" y="9.1" fill="none" stroke="#000000" stroke-width="0.4"></rect></g><g id="SvgjsG1226" transform="matrix(0.7926239891046001,-0.6097107608496924,0.6097107608496924,0.7926239891046001,69.5,185)"><rect id="SvgjsRect1227" width="6" height="1.8" x="-3" y="-10.9" fill="none" stroke="#000000" stroke-width="0.4"></rect></g><g id="SvgjsG1228" transform="matrix(0.7926239891046001,-0.6097107608496924,0.6097107608496924,0.7926239891046001,69.5,185)"><rect id="SvgjsRect1229" width="6" height="1.8" x="-3" y="-0.9" fill="none" stroke="#000000" stroke-width="0.4"></rect></g><g id="SvgjsG1230" transform="matrix(0.7926239891046001,-0.6097107608496924,0.6097107608496924,0.7926239891046001,69.5,185)"><rect id="SvgjsRect1231" width="6" height="1.8" x="-3" y="9.1" fill="none" stroke="#000000" stroke-width="0.4"></rect></g><g id="SvgjsG1232" transform="matrix(0.7926239891046001,-0.6097107608496924,0.6097107608496924,0.7926239891046001,89,170)"><rect id="SvgjsRect1233" width="6" height="1.8" x="-3" y="-10.9" fill="none" stroke="#000000" stroke-width="0.4"></rect></g><g id="SvgjsG1234" transform="matrix(0.7926239891046001,-0.6097107608496924,0.6097107608496924,0.7926239891046001,89,170)"><rect id="SvgjsRect1235" width="6" height="1.8" x="-3" y="-0.9" fill="none" stroke="#000000" stroke-width="0.4"></rect></g><g id="SvgjsG1236" transform="matrix(0.7926239891046001,-0.6097107608496924,0.6097107608496924,0.7926239891046001,89,170)"><rect id="SvgjsRect1237" width="6" height="1.8" x="-3" y="9.1" fill="none" stroke="#000000" stroke-width="0.4"></rect></g><g id="SvgjsG1238" transform="matrix(0.7926239891046001,-0.6097107608496924,0.6097107608496924,0.7926239891046001,108.5,155)"><rect id="SvgjsRect1239" width="6" height="1.8" x="-3" y="-10.9" fill="none" stroke="#000000" stroke-width="0.4"></rect></g><g id="SvgjsG1240" transform="matrix(0.7926239891046001,-0.6097107608496924,0.6097107608496924,0.7926239891046001,108.5,155)"><rect id="SvgjsRect1241" width="6" height="1.8" x="-3" y="-0.9" fill="none" stroke="#000000" stroke-width="0.4"></rect></g><g id="SvgjsG1242" transform="matrix(0.7926239891046001,-0.6097107608496924,0.6097107608496924,0.7926239891046001,108.5,155)"><rect id="SvgjsRect1243" width="6" height="1.8" x="-3" y="9.1" fill="none" stroke="#000000" stroke-width="0.4"></rect></g><g id="SvgjsG1244" transform="matrix(0.7926239891046001,-0.6097107608496924,0.6097107608496924,0.7926239891046001,128,140)"><rect id="SvgjsRect1245" width="6" height="1.8" x="-3" y="-10.9" fill="none" stroke="#000000" stroke-width="0.4"></rect></g><g id="SvgjsG1246" transform="matrix(0.7926239891046001,-0.6097107608496924,0.6097107608496924,0.7926239891046001,128,140)"><rect id="SvgjsRect1247" width="6" height="1.8" x="-3" y="-0.9" fill="none" stroke="#000000" stroke-width="0.4"></rect></g><g id="SvgjsG1248" transform="matrix(0.7926239891046001,-0.6097107608496924,0.6097107608496924,0.7926239891046001,128,140)"><rect id="SvgjsRect1249" width="6" height="1.8" x="-3" y="9.1" fill="none" stroke="#000000" stroke-width="0.4"></rect></g><g id="SvgjsG1250" transform="matrix(0.7926239891046001,-0.6097107608496924,0.6097107608496924,0.7926239891046001,147.5,125)"><rect id="SvgjsRect1251" width="6" height="1.8" x="-3" y="-10.9" fill="none" stroke="#000000" stroke-width="0.4"></rect></g><g id="SvgjsG1252" transform="matrix(0.7926239891046001,-0.6097107608496924,0.6097107608496924,0.7926239891046001,147.5,125)"><rect id="SvgjsRect1253" width="6" height="1.8" x="-3" y="-0.9" fill="none" stroke="#000000" stroke-width="0.4"></rect></g><g id="SvgjsG1254" transform="matrix(0.7926239891046001,-0.6097107608496924,0.6097107608496924,0.7926239891046001,147.5,125)"><rect id="SvgjsRect1255" width="6" height="1.8" x="-3" y="9.1" fill="none" stroke="#000000" stroke-width="0.4"></rect></g><g id="SvgjsG1256" transform="matrix(0.7926239891046001,-0.6097107608496924,0.6097107608496924,0.7926239891046001,167,110)"><rect id="SvgjsRect1257" width="6" height="1.8" x="-3" y="-10.9" fill="none" stroke="#000000" stroke-width="0.4"></rect></g><g id="SvgjsG1258" transform="matrix(0.7926239891046001,-0.6097107608496924,0.6097107608496924,0.7926239891046001,167,110)"><rect id="SvgjsRect1259" width="6" height="1.8" x="-3" y="-0.9" fill="none" stroke="#000000" stroke-width="0.4"></rect></g><g id="SvgjsG1260" transform="matrix(0.7926239891046001,-0.6097107608496924,0.6097107608496924,0.7926239891046001,167,110)"><rect id="SvgjsRect1261" width="6" height="1.8" x="-3" y="9.1" fill="none" stroke="#000000" stroke-width="0.4"></rect></g><g id="SvgjsG1262" transform="matrix(0.7926239891046001,-0.6097107608496924,0.6097107608496924,0.7926239891046001,186.5,95)"><rect id="SvgjsRect1263" width="6" height="1.8" x="-3" y="-10.9" fill="none" stroke="#000000" stroke-width="0.4"></rect></g><g id="SvgjsG1264" transform="matrix(0.7926239891046001,-0.6097107608496924,0.6097107608496924,0.7926239891046001,186.5,95)"><rect id="SvgjsRect1265" width="6" height="1.8" x="-3" y="-0.9" fill="none" stroke="#000000" stroke-width="0.4"></rect></g><g id="SvgjsG1266" transform="matrix(0.7926239891046001,-0.6097107608496924,0.6097107608496924,0.7926239891046001,186.5,95)"><rect id="SvgjsRect1267" width="6" height="1.8" x="-3" y="9.1" fill="none" stroke="#000000" stroke-width="0.4"></rect></g><g id="SvgjsG1268" transform="matrix(0.7926239891046001,-0.6097107608496924,0.6097107608496924,0.7926239891046001,206,80)"><rect id="SvgjsRect1269" width="6" height="1.8" x="-3" y="-10.9" fill="none" stroke="#000000" stroke-width="0.4"></rect></g><g id="SvgjsG1270" transform="matrix(0.7926239891046001,-0.6097107608496924,0.6097107608496924,0.7926239891046001,206,80)"><rect id="SvgjsRect1271" width="6" height="1.8" x="-3" y="-0.9" fill="none" stroke="#000000" stroke-width="0.4"></rect></g><g id="SvgjsG1272" transform="matrix(0.7926239891046001,-0.6097107608496924,0.6097107608496924,0.7926239891046001,206,80)"><rect id="SvgjsRect1273" width="6" height="1.8" x="-3" y="9.1" fill="none" stroke="#000000" stroke-width="0.4"></rect></g><g id="SvgjsG1274" transform="matrix(0.7926239891046001,-0.6097107608496924,0.6097107608496924,0.7926239891046001,225.5,65)"><rect id="SvgjsRect1275" width="6" height="1.8" x="-3" y="-10.9" fill="none" stroke="#000000" stroke-width="0.4"></rect></g><g id="SvgjsG1276" transform="matrix(0.7926239891046001,-0.6097107608496924,0.6097107608496924,0.7926239891046001,225.5,65)"><rect id="SvgjsRect1277" width="6" height="1.8" x="-3" y="-0.9" fill="none" stroke="#000000" stroke-width="0.4"></rect></g><g id="SvgjsG1278" transform="matrix(0.7926239891046001,-0.6097107608496924,0.6097107608496924,0.7926239891046001,225.5,65)"><rect id="SvgjsRect1279" width="6" height="1.8" x="-3" y="9.1" fill="none" stroke="#000000" stroke-width="0.4"></rect></g></svg>